<?xml version="1.0" encoding="UTF-8" standalone="no"?>
<!DOCTYPE svg PUBLIC "-//W3C//DTD SVG 1.1//EN"
 "http://www.w3.org/Graphics/SVG/1.1/DTD/svg11.dtd">
<!-- Generated by graphviz version 13.1.2 (20250808.2320)
 -->
<!-- Pages: 1 -->
<svg width="308pt" height="148pt"
 viewBox="0.00 0.00 308.00 148.00" xmlns="http://www.w3.org/2000/svg" xmlns:xlink="http://www.w3.org/1999/xlink">
<g id="graph0" class="graph" transform="scale(1 1) rotate(0) translate(4 144.3)">
<polygon fill="white" stroke="none" points="-4,4 -4,-144.3 303.88,-144.3 303.88,4 -4,4"/>
<!-- right -->
<g id="node1" class="node">
<title>right</title>
<polygon fill="lightgray" stroke="black" points="32.5,-140.3 0,-140.3 0,-121.8 32.5,-121.8 32.5,-140.3"/>
<text xml:space="preserve" text-anchor="middle" x="16.25" y="-127.75" font-family="Times New Roman,serif" font-size="9.00">right</text>
</g>
<!-- turn left -->
<g id="node7" class="node">
<title>turn left</title>
<ellipse fill="lightblue" stroke="black" cx="46.25" cy="-34.65" rx="30.94" ry="30.94"/>
<text xml:space="preserve" text-anchor="middle" x="46.25" y="-31.35" font-family="Times New Roman,serif" font-size="9.00">turn left</text>
</g>
<!-- right&#45;&gt;turn left -->
<g id="edge4" class="edge">
<title>right&#45;&gt;turn left</title>
<path fill="none" stroke="red" stroke-width="0.39" d="M15.39,-121.35C14.79,-112.59 14.58,-98.75 17.75,-87.3 19.36,-81.48 21.74,-75.6 24.44,-70"/>
<polygon fill="red" stroke="red" stroke-width="0.39" points="27.4,-71.9 28.96,-61.42 21.21,-68.64 27.4,-71.9"/>
<text xml:space="preserve" text-anchor="middle" x="32" y="-90.5" font-family="Times New Roman,serif" font-size="14.00">&#45;1.46</text>
</g>
<!-- right diag -->
<g id="node2" class="node">
<title>right diag</title>
<polygon fill="lightgray" stroke="black" points="192.12,-140.3 142.38,-140.3 142.38,-121.8 192.12,-121.8 192.12,-140.3"/>
<text xml:space="preserve" text-anchor="middle" x="167.25" y="-127.75" font-family="Times New Roman,serif" font-size="9.00">right diag</text>
</g>
<!-- turn right -->
<g id="node6" class="node">
<title>turn right</title>
<ellipse fill="lightblue" stroke="black" cx="137.25" cy="-34.65" rx="34.65" ry="34.65"/>
<text xml:space="preserve" text-anchor="middle" x="137.25" y="-31.35" font-family="Times New Roman,serif" font-size="9.00">turn right</text>
</g>
<!-- right diag&#45;&gt;turn right -->
<g id="edge3" class="edge">
<title>right diag&#45;&gt;turn right</title>
<path fill="none" stroke="green" stroke-width="0.24" d="M164.48,-121.33C161.28,-111.26 155.78,-93.95 150.56,-77.52"/>
<polygon fill="green" stroke="green" stroke-width="0.24" points="154.01,-76.82 147.64,-68.35 147.34,-78.94 154.01,-76.82"/>
<text xml:space="preserve" text-anchor="middle" x="170.39" y="-90.5" font-family="Times New Roman,serif" font-size="14.00">0.71</text>
</g>
<!-- forward -->
<g id="node3" class="node">
<title>forward</title>
<polygon fill="lightgray" stroke="black" points="254.5,-140.3 210,-140.3 210,-121.8 254.5,-121.8 254.5,-140.3"/>
<text xml:space="preserve" text-anchor="middle" x="232.25" y="-127.75" font-family="Times New Roman,serif" font-size="9.00">forward</text>
</g>
<!-- left diag -->
<g id="node4" class="node">
<title>left diag</title>
<polygon fill="lightgray" stroke="black" points="110.5,-140.3 66,-140.3 66,-121.8 110.5,-121.8 110.5,-140.3"/>
<text xml:space="preserve" text-anchor="middle" x="88.25" y="-127.75" font-family="Times New Roman,serif" font-size="9.00">left diag</text>
</g>
<!-- left diag&#45;&gt;turn right -->
<g id="edge2" class="edge">
<title>left diag&#45;&gt;turn right</title>
<path fill="none" stroke="red" stroke-width="0.32" stroke-dasharray="1,5" d="M92.77,-121.33C98.3,-110.69 108.03,-91.95 116.98,-74.7"/>
<polygon fill="red" stroke="red" stroke-width="0.32" points="119.84,-76.79 121.34,-66.3 113.63,-73.56 119.84,-76.79"/>
<text xml:space="preserve" text-anchor="middle" x="124.07" y="-90.5" font-family="Times New Roman,serif" font-size="14.00">&#45;1.09</text>
</g>
<!-- left diag&#45;&gt;turn left -->
<g id="edge1" class="edge">
<title>left diag&#45;&gt;turn left</title>
<path fill="none" stroke="green" stroke-width="0.46" d="M81.22,-121.72C77.3,-116.76 72.55,-110.2 69.25,-103.8 64.63,-94.83 60.63,-84.74 57.33,-75.12"/>
<polygon fill="green" stroke="green" stroke-width="0.46" points="60.66,-74.04 54.24,-65.62 54,-76.21 60.66,-74.04"/>
<text xml:space="preserve" text-anchor="middle" x="81.25" y="-90.5" font-family="Times New Roman,serif" font-size="14.00">1.82</text>
</g>
<!-- left -->
<g id="node5" class="node">
<title>left</title>
<polygon fill="lightgray" stroke="black" points="299.88,-140.3 272.62,-140.3 272.62,-121.8 299.88,-121.8 299.88,-140.3"/>
<text xml:space="preserve" text-anchor="middle" x="286.25" y="-127.75" font-family="Times New Roman,serif" font-size="9.00">left</text>
</g>
</g>
</svg>
