<?xml version="1.0" encoding="UTF-8" standalone="no"?>
<!DOCTYPE svg PUBLIC "-//W3C//DTD SVG 1.1//EN"
 "http://www.w3.org/Graphics/SVG/1.1/DTD/svg11.dtd">
<!-- Generated by graphviz version 13.1.2 (20250808.2320)
 -->
<!-- Pages: 1 -->
<svg width="478pt" height="148pt"
 viewBox="0.00 0.00 478.00 148.00" xmlns="http://www.w3.org/2000/svg" xmlns:xlink="http://www.w3.org/1999/xlink">
<g id="graph0" class="graph" transform="scale(1 1) rotate(0) translate(4 144.3)">
<polygon fill="white" stroke="none" points="-4,4 -4,-144.3 474.39,-144.3 474.39,4 -4,4"/>
<!-- right -->
<g id="node1" class="node">
<title>right</title>
<polygon fill="lightgray" stroke="black" points="186.12,-140.3 153.62,-140.3 153.62,-121.8 186.12,-121.8 186.12,-140.3"/>
<text xml:space="preserve" text-anchor="middle" x="169.88" y="-127.75" font-family="Times New Roman,serif" font-size="9.00">right</text>
</g>
<!-- turn right -->
<g id="node6" class="node">
<title>turn right</title>
<ellipse fill="lightblue" stroke="black" cx="106.88" cy="-34.65" rx="34.65" ry="34.65"/>
<text xml:space="preserve" text-anchor="middle" x="106.88" y="-31.35" font-family="Times New Roman,serif" font-size="9.00">turn right</text>
</g>
<!-- right&#45;&gt;turn right -->
<g id="edge1" class="edge">
<title>right&#45;&gt;turn right</title>
<path fill="none" stroke="red" stroke-width="0.25" d="M153.52,-128.71C125.06,-126.01 68.33,-118.84 56.38,-103.8 45.29,-89.86 55.95,-73.88 70.28,-60.9"/>
<polygon fill="red" stroke="red" stroke-width="0.25" points="72.31,-63.76 77.72,-54.66 67.81,-58.4 72.31,-63.76"/>
<text xml:space="preserve" text-anchor="middle" x="70.62" y="-90.5" font-family="Times New Roman,serif" font-size="14.00">&#45;0.73</text>
</g>
<!-- turn left -->
<g id="node7" class="node">
<title>turn left</title>
<ellipse fill="lightblue" stroke="black" cx="314.88" cy="-34.65" rx="30.94" ry="30.94"/>
<text xml:space="preserve" text-anchor="middle" x="314.88" y="-31.35" font-family="Times New Roman,serif" font-size="9.00">turn left</text>
</g>
<!-- right&#45;&gt;turn left -->
<g id="edge2" class="edge">
<title>right&#45;&gt;turn left</title>
<path fill="none" stroke="red" stroke-width="0.14" d="M186.49,-125.9C201.43,-121.71 223.61,-114.36 240.88,-103.8 246.04,-100.64 267.3,-80.92 285.72,-63.51"/>
<polygon fill="red" stroke="red" stroke-width="0.14" points="287.85,-66.3 292.7,-56.88 283.04,-61.23 287.85,-66.3"/>
<text xml:space="preserve" text-anchor="middle" x="273.43" y="-90.5" font-family="Times New Roman,serif" font-size="14.00">&#45;0.21</text>
</g>
<!-- right diag -->
<g id="node2" class="node">
<title>right diag</title>
<polygon fill="lightgray" stroke="black" points="49.75,-140.3 0,-140.3 0,-121.8 49.75,-121.8 49.75,-140.3"/>
<text xml:space="preserve" text-anchor="middle" x="24.88" y="-127.75" font-family="Times New Roman,serif" font-size="9.00">right diag</text>
</g>
<!-- right diag&#45;&gt;turn right -->
<g id="edge3" class="edge">
<title>right diag&#45;&gt;turn right</title>
<path fill="none" stroke="green" stroke-width="0.7" d="M22.29,-121.57C20.04,-112.49 17.96,-97.94 23.88,-87.3 32.75,-71.32 48.84,-59.65 64.5,-51.49"/>
<polygon fill="green" stroke="green" stroke-width="0.7" points="65.69,-54.8 73.19,-47.31 62.66,-48.49 65.69,-54.8"/>
<text xml:space="preserve" text-anchor="middle" x="35.88" y="-90.5" font-family="Times New Roman,serif" font-size="14.00">2.98</text>
</g>
<!-- right diag&#45;&gt;turn left -->
<g id="edge4" class="edge">
<title>right diag&#45;&gt;turn left</title>
<path fill="none" stroke="red" stroke-width="0.53" d="M49.97,-130.15C83.22,-129.39 143.02,-124.85 188.88,-103.8 199.19,-99.06 198.86,-93.49 208.38,-87.3 229.84,-73.33 255.64,-60.72 276.47,-51.46"/>
<polygon fill="red" stroke="red" stroke-width="0.53" points="277.76,-54.72 285.52,-47.51 274.96,-48.3 277.76,-54.72"/>
<text xml:space="preserve" text-anchor="middle" x="222.62" y="-90.5" font-family="Times New Roman,serif" font-size="14.00">&#45;2.15</text>
</g>
<!-- forward -->
<g id="node3" class="node">
<title>forward</title>
<polygon fill="lightgray" stroke="black" points="377.12,-140.3 332.62,-140.3 332.62,-121.8 377.12,-121.8 377.12,-140.3"/>
<text xml:space="preserve" text-anchor="middle" x="354.88" y="-127.75" font-family="Times New Roman,serif" font-size="9.00">forward</text>
</g>
<!-- forward&#45;&gt;turn right -->
<g id="edge5" class="edge">
<title>forward&#45;&gt;turn right</title>
<path fill="none" stroke="red" stroke-width="0.1" d="M332.3,-126.47C322.63,-124.97 311.21,-123.25 300.88,-121.8 238.53,-113.04 215.12,-134.88 160.38,-103.8 147.85,-96.69 137.21,-85.36 128.8,-73.97"/>
<polygon fill="red" stroke="red" stroke-width="0.1" points="131.73,-72.06 123.16,-65.84 125.98,-76.05 131.73,-72.06"/>
<text xml:space="preserve" text-anchor="middle" x="174.62" y="-90.5" font-family="Times New Roman,serif" font-size="14.00">&#45;0.01</text>
</g>
<!-- forward&#45;&gt;turn left -->
<g id="edge6" class="edge">
<title>forward&#45;&gt;turn left</title>
<path fill="none" stroke="red" stroke-width="0.44" d="M352.17,-121.42C349.36,-112.71 344.71,-98.92 339.88,-87.3 337.82,-82.36 335.53,-77.23 333.2,-72.2"/>
<polygon fill="red" stroke="red" stroke-width="0.44" points="336.44,-70.86 328.98,-63.33 330.12,-73.87 336.44,-70.86"/>
<text xml:space="preserve" text-anchor="middle" x="360.36" y="-90.5" font-family="Times New Roman,serif" font-size="14.00">&#45;1.72</text>
</g>
<!-- left diag -->
<g id="node4" class="node">
<title>left diag</title>
<polygon fill="lightgray" stroke="black" points="292.12,-140.3 247.62,-140.3 247.62,-121.8 292.12,-121.8 292.12,-140.3"/>
<text xml:space="preserve" text-anchor="middle" x="269.88" y="-127.75" font-family="Times New Roman,serif" font-size="9.00">left diag</text>
</g>
<!-- left diag&#45;&gt;turn right -->
<g id="edge7" class="edge">
<title>left diag&#45;&gt;turn right</title>
<path fill="none" stroke="red" stroke-width="0.45" d="M247.18,-127.13C203.78,-121.45 112.91,-109.01 108.38,-103.8 102.46,-96.99 99.93,-88.2 99.3,-79.21"/>
<polygon fill="red" stroke="red" stroke-width="0.45" points="102.8,-79.36 99.34,-69.35 95.8,-79.34 102.8,-79.36"/>
<text xml:space="preserve" text-anchor="middle" x="122.62" y="-90.5" font-family="Times New Roman,serif" font-size="14.00">&#45;1.74</text>
</g>
<!-- left diag&#45;&gt;turn left -->
<g id="edge8" class="edge">
<title>left diag&#45;&gt;turn left</title>
<path fill="none" stroke="green" stroke-width="0.81" d="M278.96,-121.52C283.66,-116.69 289.17,-110.33 292.88,-103.8 297.78,-95.15 301.76,-85.26 304.93,-75.75"/>
<polygon fill="green" stroke="green" stroke-width="0.81" points="308.2,-77.02 307.79,-66.43 301.51,-74.96 308.2,-77.02"/>
<text xml:space="preserve" text-anchor="middle" x="312.46" y="-90.5" font-family="Times New Roman,serif" font-size="14.00">3.57</text>
</g>
<!-- left -->
<g id="node5" class="node">
<title>left</title>
<polygon fill="lightgray" stroke="black" points="433.5,-140.3 406.25,-140.3 406.25,-121.8 433.5,-121.8 433.5,-140.3"/>
<text xml:space="preserve" text-anchor="middle" x="419.88" y="-127.75" font-family="Times New Roman,serif" font-size="9.00">left</text>
</g>
<!-- left&#45;&gt;turn right -->
<g id="edge9" class="edge">
<title>left&#45;&gt;turn right</title>
<path fill="none" stroke="red" stroke-width="0.21" d="M414.33,-121.59C407.33,-111.66 394.31,-95.51 378.88,-87.3 337.46,-65.27 320.99,-77.9 274.88,-69.3 232.74,-61.43 184.81,-51.76 150.96,-44.81"/>
<polygon fill="red" stroke="red" stroke-width="0.21" points="151.75,-41.4 141.25,-42.81 150.34,-48.25 151.75,-41.4"/>
<text xml:space="preserve" text-anchor="middle" x="413.35" y="-90.5" font-family="Times New Roman,serif" font-size="14.00">&#45;0.57</text>
</g>
<!-- left&#45;&gt;turn left -->
<g id="edge10" class="edge">
<title>left&#45;&gt;turn left</title>
<path fill="none" stroke="green" stroke-width="0.55" d="M430.33,-121.61C439.94,-112.8 451.6,-98.72 443.88,-87.3 424.49,-58.65 386.35,-45.89 356.54,-40.21"/>
<polygon fill="green" stroke="green" stroke-width="0.55" points="357.26,-36.78 346.81,-38.56 356.09,-43.68 357.26,-36.78"/>
<text xml:space="preserve" text-anchor="middle" x="458.39" y="-90.5" font-family="Times New Roman,serif" font-size="14.00">2.25</text>
</g>
</g>
</svg>
